<svg xmlns="http://www.w3.org/2000/svg" xmlns:xlink="http://www.w3.org/1999/xlink" viewBox="0 0 361.22 324.61"><defs><style>.cls-1{fill:url(#未命名的渐变_15);}.cls-2{fill:#b0caac;}</style><linearGradient id="未命名的渐变_15" x1="217.52" y1="138.75" x2="370.31" y2="198.56" gradientUnits="userSpaceOnUse"><stop offset="0.26" stop-color="#769092"/><stop offset="0.27" stop-color="#789293"/><stop offset="0.57" stop-color="#97b1a1"/><stop offset="0.82" stop-color="#a9c3a9"/><stop offset="1" stop-color="#b0caac"/></linearGradient></defs><title>资源 1</title><g id="图层_2" data-name="图层 2"><g id="图层_1-2" data-name="图层 1"><path class="cls-1" d="M360.29,33.89,258.48,314.71a14.75,14.75,0,0,1-4.35,6.31,15.09,15.09,0,0,1-13.76,3.06,14.77,14.77,0,0,1-6.63-3.87,21,21,0,0,1-3.13-3.13c-1.24-1.63-15.14-29.77-15.14-29.77a6.63,6.63,0,0,1-.37-5.83c1.27-3.49,90.43-250,91-251a9.45,9.45,0,0,1,5.32-5.08l29.63-10.74a15,15,0,0,1,8.66-.51,15.31,15.31,0,0,1,11.09,11.07A14.94,14.94,0,0,1,360.29,33.89Z"/><path id="减去_5-2" data-name="减去 5-2" class="cls-2" d="M7.49,130.56,4.4,127.48a14.83,14.83,0,0,1-3.87-6.62,15.15,15.15,0,0,1,3.06-13.77,15,15,0,0,1,6.32-4.36L290.72.93a14.84,14.84,0,0,1,8.67-.51,15.25,15.25,0,0,1,11.08,11.07,15,15,0,0,1-.5,8.68L208.16,301a14.86,14.86,0,0,1-4.36,6.31A15.16,15.16,0,0,1,190,310.36a14.71,14.71,0,0,1-6.61-3.87l-3.13-3.13L123.67,192a11,11,0,0,0-4.86-4.85Z"/></g></g></svg>