<svg xmlns="http://www.w3.org/2000/svg" width="369.227" height="352.584" viewBox="0 0 369.227 352.584">
  <g id="logo" transform="translate(-346.269 -712.111)">
    <g id="组_3" data-name="组 3" transform="translate(408.06 -356.761) rotate(45)">
      <path id="减去_5" data-name="减去 5" d="M14,216.89H10.85a10.683,10.683,0,0,1-5.353-1.4A10.943,10.943,0,0,1,.035,206.9a10.685,10.685,0,0,1,1-5.442L92.364,6.244a10.767,10.767,0,0,1,4.163-4.683,11.014,11.014,0,0,1,11.305,0A10.766,10.766,0,0,1,112,6.244l91.329,195.217a10.686,10.686,0,0,1,1,5.443,10.942,10.942,0,0,1-5.462,8.586,10.683,10.683,0,0,1-5.352,1.4h-3.193l-85.68-27.908a7.966,7.966,0,0,0-4.955,0Z" transform="translate(883.036 652.619)" fill="#375272"/>
      <path id="多边形_3" data-name="多边形 3" d="M90.564,126.058a16.441,16.441,0,0,0,24.6,0l29.183-32.831a16.254,16.254,0,0,0,4.055-8.758,16.745,16.745,0,0,0-7.117-15.847,16.254,16.254,0,0,0-9.24-2.788H73.682a16.254,16.254,0,0,0-9.24,2.788,16.744,16.744,0,0,0-7.116,15.847,16.254,16.254,0,0,0,4.055,8.758Z" transform="translate(882.353 819.295)" fill="#375272"/>
    </g>
    <g id="组_2" data-name="组 2" transform="translate(374.417 -373.761) rotate(45)">
      <path id="减去_5-2" data-name="减去 5" d="M14,216.89H10.85a10.683,10.683,0,0,1-5.353-1.4A10.943,10.943,0,0,1,.035,206.9a10.685,10.685,0,0,1,1-5.442L92.364,6.244a10.767,10.767,0,0,1,4.163-4.683,11.014,11.014,0,0,1,11.305,0A10.766,10.766,0,0,1,112,6.244l91.329,195.217a10.686,10.686,0,0,1,1,5.443,10.942,10.942,0,0,1-5.462,8.586,10.683,10.683,0,0,1-5.352,1.4h-3.193l-85.68-27.908a7.966,7.966,0,0,0-4.955,0Z" transform="translate(883.036 652.619)" fill="#2e97ff"/>
      <path id="多边形_3-2" data-name="多边形 3" d="M90.564,126.058a16.441,16.441,0,0,0,24.6,0l29.183-32.831a16.254,16.254,0,0,0,4.055-8.758,16.745,16.745,0,0,0-7.116-15.847,16.254,16.254,0,0,0-9.24-2.788H73.682a16.254,16.254,0,0,0-9.24,2.788,16.744,16.744,0,0,0-7.116,15.847,16.254,16.254,0,0,0,4.055,8.758Z" transform="translate(882.353 819.295)" fill="#2e97ff"/>
    </g>
  </g>
</svg>
