<svg xmlns="http://www.w3.org/2000/svg" xmlns:xlink="http://www.w3.org/1999/xlink" viewBox="0 0 26.71 24"><defs><style>.cls-1{fill:url(#未命名的渐变_15);}.cls-2{fill:#b0caac;}</style><linearGradient id="未命名的渐变_15" x1="16.08" y1="10.26" x2="27.38" y2="14.68" gradientUnits="userSpaceOnUse"><stop offset="0.26" stop-color="#769092"/><stop offset="0.27" stop-color="#789293"/><stop offset="0.57" stop-color="#97b1a1"/><stop offset="0.82" stop-color="#a9c3a9"/><stop offset="1" stop-color="#b0caac"/></linearGradient></defs><title>资源 4</title><g id="图层_2" data-name="图层 2"><g id="图层_1-2" data-name="图层 1"><path class="cls-1" d="M26.64,2.51,19.11,23.27a1,1,0,0,1-.32.46,1.11,1.11,0,0,1-1,.23,1.12,1.12,0,0,1-.49-.29,1.47,1.47,0,0,1-.23-.23c-.09-.12-1.12-2.2-1.12-2.2a.49.49,0,0,1,0-.43c.1-.26,6.69-18.48,6.73-18.56a.72.72,0,0,1,.4-.37l2.19-.8a1.07,1.07,0,0,1,.64,0,1.14,1.14,0,0,1,.82.81A1.2,1.2,0,0,1,26.64,2.51Z"/><path id="减去_5-2" data-name="减去 5-2" class="cls-2" d="M.55,9.65.33,9.42A1,1,0,0,1,0,8.94a1.11,1.11,0,0,1,.23-1A1,1,0,0,1,.73,7.6L21.49.07a1.11,1.11,0,0,1,.65,0A1.12,1.12,0,0,1,23,.85a1.07,1.07,0,0,1,0,.64L15.39,22.25a1.1,1.1,0,0,1-.32.47,1.14,1.14,0,0,1-1,.23,1.07,1.07,0,0,1-.49-.29l-.23-.23L9.14,14.2a.78.78,0,0,0-.36-.36Z"/></g></g></svg>