<svg xmlns="http://www.w3.org/2000/svg" width="319" height="319.001" viewBox="0 0 319 319.001">
  <path id="浏览器_icon" data-name="浏览器 icon" d="M722.5,195h-160a79.127,79.127,0,0,1-44.449-13.578,79.733,79.733,0,0,1-28.8-34.978A79,79,0,0,1,483,115.5v-160a79,79,0,0,1,6.247-30.945,79.51,79.51,0,0,1,7.33-13.5,80.073,80.073,0,0,1,9.708-11.766,80.07,80.07,0,0,1,11.766-9.708,79.511,79.511,0,0,1,13.5-7.33A79,79,0,0,1,562.5-124h160a79,79,0,0,1,30.945,6.248,79.51,79.51,0,0,1,13.5,7.33,80.069,80.069,0,0,1,11.766,9.708,80.076,80.076,0,0,1,9.708,11.766,79.509,79.509,0,0,1,7.33,13.5A79,79,0,0,1,802-44.5v160a79.13,79.13,0,0,1-13.577,44.449,79.732,79.732,0,0,1-34.977,28.8A79,79,0,0,1,722.5,195ZM744.406-77.941a10.735,10.735,0,0,0-3.731.667L538.059-3.816A10.7,10.7,0,0,0,533.5-.675a10.943,10.943,0,0,0-2.211,9.936,10.7,10.7,0,0,0,2.795,4.775l2.227,2.227,80.324,40.856a7.9,7.9,0,0,1,3.5,3.5l40.851,80.319,2.257,2.258.022.021.023.022a10.7,10.7,0,0,0,4.731,2.751,10.942,10.942,0,0,0,9.933-2.209,10.7,10.7,0,0,0,3.142-4.557L754.56-63.39a10.728,10.728,0,0,0,.364-6.259,10.994,10.994,0,0,0-7.993-7.993A10.787,10.787,0,0,0,744.406-77.941ZM555.454,64.179a16.79,16.79,0,0,0-13.209,6.458,16.34,16.34,0,0,0-3.325,9.06l-2.579,43.851a16.439,16.439,0,0,0,16.411,17.426c.326,0,.657-.01.985-.029l43.852-2.579a16.341,16.341,0,0,0,9.06-3.326,16.746,16.746,0,0,0,6.173-16.239,16.348,16.348,0,0,0-4.563-8.5L566.987,69.026a16.115,16.115,0,0,0-11.533-4.847Z" transform="translate(-483 124)" fill="#2e97ff"/>
</svg>
